<svg height="512pt" viewBox="-12 0 512 512.00026" width="512pt" xmlns="http://www.w3.org/2000/svg"><path d="m93.566406 112.160156h379.695313v287.15625h-379.695313zm0 0" fill="#afe6ff"/><path d="m473.261719 99.652344h-379.695313c-6.90625 0-12.507812 5.601562-12.507812 12.507812v287.15625c0 6.910156 5.601562 12.507813 12.507812 12.507813h379.695313c6.90625 0 12.507812-5.597657 12.507812-12.507813v-287.15625c0-6.90625-5.597656-12.507812-12.507812-12.507812zm-367.1875 25.015625h164.832031v262.144531h-164.832031zm354.683593 262.144531h-164.835937v-262.144531h164.835937zm0 0" fill="#ba6746"/><path d="m311.804688 291.25c-4.34375 0-7.867188-3.519531-7.867188-7.863281v-6.425781h-42.070312v6.425781c0 4.34375-3.519532 7.863281-7.863282 7.863281s-7.867187-3.519531-7.867187-7.863281v-14.289063c0-4.34375 3.523437-7.867187 7.867187-7.867187h57.796875c4.34375 0 7.867188 3.523437 7.867188 7.867187v14.289063c0 4.34375-3.519531 7.863281-7.863281 7.863281zm0 0" fill="#e28c71"/><path d="m404.605469 398.171875c-3.496094 0-7.027344-1.007813-10.140625-3.113281-8.300782-5.609375-10.484375-16.882813-4.875-25.183594l18.230468-26.980469-22.515624 8.429688c-9.382813 3.511719-19.835938-1.246094-23.347657-10.625-3.515625-9.382813 1.242188-19.835938 10.625-23.351563l75.707031-28.347656c7.390626-2.769531 15.722657-.4375 20.609376 5.757812 4.882812 6.199219 5.199218 14.84375.78125 21.386719l-50.027344 74.039063c-3.507813 5.1875-9.226563 7.988281-15.046875 7.988281zm0 0" fill="#55696e"/><path d="m299.070312 512c-2.472656 0-4.984374-.507812-7.386718-1.582031-9.148438-4.085938-13.25-14.8125-9.164063-23.960938l37.257813-83.425781v-65.628906c0-10.019532 8.125-18.140625 18.140625-18.140625 10.019531 0 18.140625 8.121093 18.140625 18.140625v69.496094c0 2.546874-.535156 5.070312-1.574219 7.394531l-38.839844 86.960937c-3.011719 6.742188-9.636719 10.746094-16.574219 10.746094zm0 0" fill="#748488"/><path d="m388.746094 173.945312c0 18.023438-14.609375 32.632813-32.628906 32.632813-18.023438 0-32.632813-14.609375-32.632813-32.632813 0-18.019531 14.609375-32.628906 32.632813-32.628906 18.019531 0 32.628906 14.609375 32.628906 32.628906zm0 0" fill="#80391b"/><path d="m478.347656 183.519531c-7.503906-2.804687-15.867187 1-18.675781 8.507813l-15.222656 40.679687-48.5625-14.554687h-72.53125l-43.683594 4.347656 16.613281-40.132812c3.066406-7.40625-.453125-15.894532-7.859375-18.960938-7.402343-3.0625-15.894531.457031-18.957031 7.859375l-25.859375 62.480469c-4.1875 10.109375 3.925781 21.054687 14.820313 19.992187l61.242187-5.984375v104.992188h57.1875c14.472656 0 26.207031-11.730469 26.207031-26.203125v-74.917969l46.578125 12.539062c7.226563 1.945313 14.746094-1.921874 17.363281-8.925781l19.847657-53.039062c2.808593-7.507813-1-15.867188-8.507813-18.679688zm0 0" fill="#80391b"/><path d="m434.117188 229.609375-38.230469-11.457031h-72.53125l-33.726563 3.355468-3.335937 29.507813 33.375-3.261719v104.992188h57.191406c14.472656 0 26.203125-11.730469 26.203125-26.207032v-74.914062l25.179688 6.777344zm0 0" fill="#fa503c"/><path d="m375.214844 386.8125h98.046875v25.011719h-98.046875zm0 0" fill="#ba6746"/><path d="m77.875 42.222656-26.148438-7.382812c-2-.566406-4.074218.597656-4.636718 2.59375l-3.398438 12.023437c-.5625 2 .601563 4.074219 2.597656 4.640625l6.910157 1.949219v23.816406h-53.199219v15.007813h60.699219c4.144531 0 7.503906-3.359375 7.503906-7.503906v-27.082032l4.230469 1.195313c2 .5625 4.074218-.597657 4.640625-2.597657l3.394531-12.023437c.5625-1.996094-.597656-4.074219-2.59375-4.636719zm0 0" fill="#6c9baa"/><path d="m101.980469 59.425781-76.167969-21.511719c-2.660156-.75-4.207031-3.511718-3.457031-6.171874l7.933593-28.097657c.75-2.660156 3.515626-4.207031 6.175782-3.457031l90.128906 25.453125c3.574219 1.011719 4.839844 5.421875 2.347656 8.175781l-21.894531 24.152344c-1.277344 1.410156-3.238281 1.972656-5.066406 1.457031zm0 0" fill="#a5c8cd"/><path d="m47.582031 17.578125c0 2.554687-2.074219 4.628906-4.628906 4.628906-2.558594 0-4.632813-2.074219-4.632813-4.628906 0-2.558594 2.074219-4.632813 4.632813-4.632813 2.554687 0 4.628906 2.074219 4.628906 4.632813zm0 0" fill="#fa503c"/></svg>